<?xml version="1.0" encoding="UTF-8" standalone="no"?>
<!-- Created with Inkscape (http://www.inkscape.org/) -->

<svg
   version="1.1"
   id="svg1"
   width="549"
   height="549"
   viewBox="0 0 549 549"
   xmlns="http://www.w3.org/2000/svg"
   xmlns:svg="http://www.w3.org/2000/svg">
  <defs
     id="defs1" />
  <g
     id="g1">
    <path
       style="fill:#000000"
       d="m 53.175929,440.44401 c -5.153651,-1.52169 -6.718935,-2.75983 -9.940227,-7.86268 -2.451029,-3.88269 -2.482589,-4.19744 -1.906553,-19.01468 0.322152,-8.28666 1.275583,-27.66665 2.118734,-43.06665 0.843151,-15.4 2.203405,-41.725 3.022788,-58.5 0.819382,-16.775 1.754622,-31.60161 2.078312,-32.94803 0.830062,-3.45272 0.800275,-45.67784 -0.03317,-47.02639 -1.024703,-1.65801 -4.177027,5.17021 -4.943683,10.70846 -0.362862,2.62128 -1.275674,7.91596 -2.02847,11.76596 -0.752796,3.85 -2.111724,11.275 -3.019841,16.5 -2.659086,15.2995 -4.745994,23.55616 -6.502064,25.72481 C 29.81705,299.4475 24.702093,302 21.450789,302 17.380621,302 11.968525,298.99566 9.885678,295.58004 7.7983308,292.15703 7.3661754,283.85217 8.9708754,278 c 0.5278468,-1.925 1.3921986,-6.65 1.9207816,-10.5 0.898743,-6.54611 2.024233,-13.63492 5.477561,-34.5 0.773748,-4.675 1.922643,-11.875 2.553099,-16 0.630457,-4.125 1.575226,-9.525 2.099488,-12 0.524261,-2.475 1.217663,-6.525 1.540893,-9 2.718484,-20.81566 8.256032,-30.39141 21.246977,-36.74112 L 51.5,155.5 80.928716,155.15823 c 31.944524,-0.37098 38.247184,0.33682 48.071284,5.39853 6.29497,3.24338 7.68382,4.63143 25.4578,25.44324 8.6898,10.175 16.10087,18.83667 16.46906,19.24815 0.3682,0.41148 10.53873,5.02517 22.60119,10.25263 12.06247,5.22747 23.01173,10.58446 24.33171,11.90443 3.1417,3.1417 5.24566,11.18859 3.81599,14.59479 -4.56542,10.8771 -13.0696,13.18358 -27.67575,7.50615 -1.925,-0.74826 -10.25,-3.46898 -18.5,-6.04605 -8.25,-2.57707 -16.19443,-5.30985 -17.65429,-6.07284 -1.45986,-0.76299 -3.25986,-1.37703 -4,-1.36453 -0.74014,0.0125 -5.95506,-4.80565 -11.58872,-10.707 -7.38924,-7.74035 -10.54653,-10.42619 -11.33244,-9.64028 -3.26791,3.26791 -3.45849,36.63454 -0.51877,90.82455 0.80559,14.85 1.94089,37.35 2.52288,50 0.582,12.65 1.51114,28.521 2.06476,35.26889 0.55362,6.74789 1.00658,18.04384 1.00658,25.10212 0,11.66233 -0.20529,13.13486 -2.25,16.13916 -4.01041,5.89252 -7.11838,7.48983 -14.57333,7.48983 -5.78207,0 -7.16943,-0.37698 -10.3543,-2.81349 -4.78311,-3.65921 -6.64818,-9.16053 -7.86072,-23.18651 -0.52302,-6.05 -1.407977,-15.05 -1.966572,-20 -1.690826,-14.98329 -2.989561,-28.34572 -4.033513,-41.5 -0.545614,-6.875 -1.420394,-15.425 -1.943954,-19 -0.523561,-3.575 -1.240743,-10.82779 -1.59374,-16.1173 -0.661248,-9.90855 -1.428257,-12.61606 -3.25429,-11.48751 -1.203272,0.74367 -1.81345,4.57463 -3.2022,20.10481 -0.541007,6.05 -1.656779,17.75 -2.479492,26 -0.822713,8.25 -2.204277,22.2 -3.070143,31 -0.865865,8.8 -2.174452,22.075 -2.90797,29.5 -0.733518,7.425 -1.834223,15.15048 -2.446012,17.16773 -0.976325,3.21925 -6.875654,9.79032 -8.84856,9.85613 -0.393362,0.0131 -2.309275,0.39466 -4.257584,0.84786 -2.277542,0.52979 -5.056063,0.37707 -7.781691,-0.42771 z m 184.101291,0.72485 c -4.54045,-0.48803 -6.83843,-1.28413 -8.5,-2.94466 -2.21798,-2.2166 -2.28508,-2.8735 -2.57948,-25.25 -0.16624,-12.63581 -0.39124,-23.0491 -0.5,-23.14065 C 225.58898,389.742 217.625,389.4045 208,389.08355 L 190.5,388.5 v -46 -46 l 2.89959,-5.9127 c 3.55438,-7.24791 8.10066,-12.39735 14.97187,-16.9582 5.34042,-3.54477 14.91288,-6.6291 20.57391,-6.6291 2.6439,0 3.38714,-0.55156 4.57539,-3.39544 0.78028,-1.86749 1.86378,-5.80499 2.40777,-8.75 1.03354,-5.59536 2.68022,-13.21282 5.58901,-25.85456 0.94914,-4.125 2.29698,-10.2 2.9952,-13.5 2.70514,-12.78537 6.51756,-19.75038 15.72905,-28.73586 3.26404,-3.18395 8.25743,-6.8693 11.09641,-8.18965 C 282.56005,173.35543 284.80841,173 306.60069,173 c 12.24005,0 21.31189,-0.41803 22.46505,-1.03518 1.58224,-0.84679 1.93426,-2.12658 1.93426,-7.03212 0,-7.12965 1.8769,-12.15071 5.4065,-14.46339 2.20612,-1.44551 5.7561,-1.701 24.86517,-1.78955 15.95701,-0.0739 23.16323,0.25774 25.35883,1.16719 4.53435,1.87819 7.3695,7.61688 7.3695,14.91676 0,3.59936 0.50318,6.409 1.26033,7.03738 0.75619,0.62759 9.45625,1.17657 21.75,1.37244 L 437.5,173.5 l 8.67681,4.24315 c 6.52381,3.19029 10.20901,5.82792 14.85178,10.62993 8.7534,9.05366 11.95145,15.57035 15.03008,30.62692 0.61853,3.025 1.7965,8.425 2.61773,12 0.82122,3.575 2.07526,9.2 2.78674,12.5 5.09001,23.60844 5.04566,23.5 9.61051,23.5 4.0139,0 12.94761,2.46004 17.65505,4.86159 5.50972,2.81085 9.56363,6.38528 13.53427,11.93347 7.25906,10.14313 7.09654,8.90615 7.50447,57.1184 0.20203,23.8774 0.10343,44.4649 -0.21911,45.75 -0.5791,2.30732 -0.75878,2.33654 -14.36738,2.33654 -9.38518,0 -14.16372,0.38277 -14.98095,1.2 -0.85707,0.85707 -1.20107,7.2155 -1.20374,22.25 -0.003,18.99907 -0.19094,21.35701 -1.92514,24.20108 -2.5372,4.16096 -8.17035,5.36263 -24.87034,5.30537 -15.98289,-0.0548 -20.95885,-0.97387 -23.92165,-4.41833 C 446.05807,434.95598 446,434.33445 446,413.14424 446,397.56539 445.65975,391.05975 444.8,390.2 443.21136,388.61136 283.89411,388.45112 280.93426,390.03518 279.11612,391.00822 279,392.3319 279,412.08484 c 0,22.37272 -0.57597,25.54749 -5.0713,27.95332 -2.43414,1.30271 -27.7773,2.08455 -36.65148,1.1307 z m 21.78928,-86.78125 c 7.08984,-2.10545 11.97146,-6.0806 15.2665,-12.43166 8.29161,-15.98171 -3.63136,-35.87117 -21.54549,-35.9414 -5.9303,-0.0232 -14.20918,3.60291 -18.12725,7.93975 -5.25946,5.82158 -6.03593,7.86562 -6.10079,16.06004 -0.0488,6.16772 0.39834,8.40618 2.49517,12.49085 2.98629,5.81736 8.43488,10.02061 15.50362,11.96009 6.49451,1.78192 6.24101,1.7835 12.50824,-0.0777 z m 219.92192,0.0214 c 9.93683,-3.25018 16.79235,-11.89978 17.74327,-22.38668 0.96947,-10.69149 -6.08007,-20.94356 -16.81581,-24.45504 -6.19461,-2.02616 -10.3338,-1.97867 -15.99859,0.18353 -11.25357,4.29541 -16.4833,12.52791 -15.7011,24.71626 0.72089,11.23298 6.55677,18.60156 17.28381,21.8231 6.60203,1.98272 7.75874,1.99291 13.48842,0.11883 z m -52.55737,-4.35178 C 427.29397,349.34106 428,347.26073 428,345.43426 428,338.74669 430.67709,339 360,339 c -70.67709,0 -68,-0.25331 -68,6.43426 0,4.19375 1.4097,5.34787 7.01962,5.74699 2.46421,0.17531 31.78685,0.2871 65.16143,0.24842 48.28856,-0.056 61.00147,-0.33626 62.25,-1.37245 z M 427.04743,325 c 0.53601,-0.825 0.85711,-3.06465 0.71356,-4.97701 -0.19205,-2.55852 -0.92139,-3.80938 -2.76099,-4.73526 -3.22638,-1.62384 -127.03238,-1.87595 -130.04282,-0.26481 -3.17782,1.70072 -4.29571,4.74558 -2.94209,8.01352 0.65042,1.57024 1.9256,3.04367 2.83374,3.2743 0.90814,0.23063 30.80507,0.36756 66.43761,0.30429 56.40244,-0.10014 64.91256,-0.30914 65.76099,-1.61503 z m 32.89438,-59.42989 c 0.92098,-1.10971 0.8493,-2.84507 -0.32014,-7.75 -1.63705,-6.86619 -2.2582,-9.68798 -6.48236,-29.44823 -3.88562,-18.17653 -7.88982,-24.47492 -18.68698,-29.3936 -4.19669,-1.91181 -6.70485,-1.97754 -74.64747,-1.95632 -79.61467,0.0249 -74.384,-0.49545 -83.15093,8.27148 -5.12007,5.12007 -7.12744,9.02202 -8.59471,16.70656 -0.57758,3.025 -1.73315,8.425 -2.56792,12 -0.83478,3.575 -2.14613,9.425 -2.91413,13 -4.09339,19.05456 -3.97374,18.13563 -2.4841,19.07868 0.79789,0.50512 44.10173,0.89732 100.03449,0.90601 84.3129,0.0131 98.79979,-0.19222 99.81425,-1.41458 z M 78.413913,143.61939 C 68.544832,140.91574 60.793551,131.90867 57.468394,119.2805 56.081864,114.01478 56.096503,112.92114 57.632772,107 60.610808,95.521949 59.266582,96 88.56353,96 c 29.45629,0 28.33286,-0.371737 31.10946,10.29393 1.68069,6.45597 1.6829,7.12093 0.0444,13.36793 -3.15537,12.03056 -10.57367,20.32071 -21.616653,24.1572 -4.11988,1.43131 -14.102958,1.33006 -19.686864,-0.19967 z M 64.609718,88.703886 C 62.930112,87.475728 60.445892,79.068691 59.304472,70.75 L 58.789929,67 80.144965,66.931729 c 30.518895,-0.09757 38.251995,0.09061 39.126985,0.952112 0.66909,0.658782 0.20191,3.35571 -2.96498,17.116159 -1.15563,5.021339 -1.04365,5 -26.238285,5 C 72.24848,90 65.943269,89.679002 64.609718,88.703886 Z"
       id="path1" />
  </g>
</svg>
